<?xml version="1.0" encoding="UTF-8"?>
<svg xmlns="http://www.w3.org/2000/svg" width="24" height="24" version="1.1" xmlns:xlink="http://www.w3.org/1999/xlink" viewBox="0 0 24 24">
  <defs>
    <style>
:root {
--col-highlight: #e9c3ffbb;
}
      .cls-1, .cls-2 {
        fill: none;
      }

      .cls-3 {
        isolation: isolate;
        fill: var(--col-highlight);
      }

      .cls-2 {
        stroke: #000;
        stroke-miterlimit: 10;
        stroke-width: 1.5px;
      }

      .cls-4 {
        opacity: .3;
      }

      .cls-5 {
        clip-path: url(#clippath);
      }
    </style>
    <clipPath id="clippath">
      <path class="cls-1" d="M0,0v24h24V0H0ZM11.1,16.7c-4.4,0-7.9-3.5-7.9-7.9S6.7.9,11.1.9s7.9,3.5,7.9,7.9-3.5,7.9-7.9,7.9Z"/>
    </clipPath>
  </defs>
  <g>
    <g id="Layer_1">
      <g id="Layer_1-2" data-name="Layer_1">
        <g id="Layer_1-2">
          <g class="cls-4">
            <g class="cls-5">
              <g>
                <line class="cls-2" y1="8.8" x2="24" y2="8.8"/>
                <line class="cls-2" y1="15.5" x2="24" y2="15.5"/>
                <line class="cls-2" y1="2.1" x2="24" y2="2.1"/>
                <line class="cls-2" y1="21.3" x2="24" y2="21.3"/>
              </g>
            </g>
          </g>
          <path class="cls-3" d="M4.1,5.4c0-.6.4-1.1.9-1.3,1.2-.3,3.4-.8,6.1-.8s4.9.5,6.1.8c1.2.3.9.7.9,1.3l.7,3.4-.7,3.6c0,.6-.4,1.2-1,1.3-1.2.2-3.4.6-6,.6s-4.7-.3-6-.6-1-.7-1-1.3l-.9-3.6.9-3.4Z"/>
          <g>
            <path d="M11.1,1.8c3.9,0,7,3.1,7,7s-3.1,7-7,7-7-3.1-7-7S7.3,1.8,11.1,1.8M11.1.4C6.5.4,2.7,4.2,2.7,8.8s3.8,8.4,8.4,8.4,8.4-3.8,8.4-8.4S15.8.4,11.1.4h0Z"/>
            <path d="M23.5,22.3c.4.5.1,1-.3,1.4-.5.4-1,.5-1.4,0l-6.2-7.8c-.4-.5.1-.9.6-1.2.2-.2.8-.5,1.1-.3l6.2,7.9Z"/>
          </g>
        </g>
      </g>
    </g>
  </g>
</svg>