<?xml version="1.0" encoding="utf-8"?>
<!-- Generator: Adobe Illustrator 16.0.0, SVG Export Plug-In . SVG Version: 6.00 Build 0)  -->
<!DOCTYPE svg PUBLIC "-//W3C//DTD SVG 1.1//EN" "http://www.w3.org/Graphics/SVG/1.1/DTD/svg11.dtd">
<svg version="1.1" id="Layer_1" xmlns="http://www.w3.org/2000/svg" xmlns:xlink="http://www.w3.org/1999/xlink" x="0px" y="0px"
	 width="24px" height="24px" viewBox="0 0 24 24" enable-background="new 0 0 24 24" xml:space="preserve">
<rect x="5.982" y="8.125" opacity="0.73" fill="#E9C3FF" stroke="#E9C3FF" stroke-linejoin="round" stroke-miterlimit="10" enable-background="new    " width="12.038" height="14.695"/>
<rect fill="#708090" width="24" height="4.053"/>
<g enable-background="new    ">
	<path d="M1.813,9.027C2.089,8.02,2.604,6.725,2.94,6.173l0.672-0.072C3.348,6.809,3.036,8.044,2.904,8.907L1.813,9.027z M3.6,9.027
		C3.864,8.02,4.392,6.725,4.715,6.173l0.672-0.072C5.123,6.809,4.812,8.044,4.68,8.907L3.6,9.027z"/>
	<path d="M20.567,6.101c-0.276,1.008-0.792,2.291-1.115,2.843L18.78,9.027c0.252-0.708,0.575-1.955,0.708-2.818L20.567,6.101z
		 M22.342,6.101c-0.275,1.008-0.791,2.291-1.115,2.843l-0.672,0.084c0.265-0.708,0.576-1.955,0.709-2.818L22.342,6.101z"/>
</g>
</svg>
