<?xml version="1.0" encoding="UTF-8"?>
<svg xmlns="http://www.w3.org/2000/svg" width="24" height="24" version="1.1" viewBox="0 0 24 24">
  <defs>
    <style>
      .cls-1, .cls-2 {
        opacity: .3;
      }

      .cls-3 {
        fill: #231f20;
      }

      .cls-4 {
        stroke: #000;
        stroke-miterlimit: 10;
        stroke-width: 1.5px;
      }

      .cls-5 {
        fill: #fff;
      }

      .cls-6 {
        fill: #e9c3ff;
        isolation: isolate;
      }

      .cls-2 {
        display: none;
      }
    </style>
  </defs>
  <!-- Generator: Adobe Illustrator 28.6.0, SVG Export Plug-In . SVG Version: 1.2.0 Build 709)  -->
  <g>
    <g id="Layer_1">
      <g class="cls-2">
        <path id="alt" class="cls-3" d="M0,1.2h24v2.1h-7.2s-2-1-5.6-1-5.6,1-5.6,1H0V1.2Z"/>
        <path id="alt-2" data-name="alt" class="cls-3" d="M0,14.3h5.5s1.5,1,5.6,1,5.6-1,5.6-1h7.2v2.1H0v-2.1Z"/>
        <path id="alt-3" data-name="alt" class="cls-3" d="M0,7.8h3.6s2-.7,7.6-.7,7.5.7,7.5.7h5.4v2.1h-5.3s-1.6.7-7.5.7-7.6-.7-7.6-.7H0v-2.1Z"/>
        <rect class="cls-3" y="20.9" width="24" height="2.1"/>
      </g>
      <g class="cls-1">
        <line class="cls-4" y1="8.8" x2="24" y2="8.8"/>
        <line class="cls-4" y1="15.5" x2="24" y2="15.5"/>
        <line class="cls-4" y1="2.1" x2="24" y2="2.1"/>
        <line class="cls-4" y1="21.3" x2="24" y2="21.3"/>
      </g>
      <circle class="cls-5" cx="11.1" cy="8.8" r="8"/>
      <path class="cls-6" d="M4.1,5.4c0-.6.4-1.1.9-1.3,1.2-.3,3.4-.8,6.1-.8s4.9.5,6.1.8.9.7.9,1.3v7c0,.6-.4,1.2-1,1.3-1.2.2-3.4.6-6,.6s-4.7-.3-6-.6-1-.7-1-1.3v-7Z"/>
      <g>
        <path d="M11.1,1.8c3.9,0,7,3.1,7,7s-3.1,7-7,7-7-3.1-7-7S7.3,1.8,11.1,1.8M11.1.4C6.5.4,2.7,4.2,2.7,8.8s3.8,8.4,8.4,8.4,8.4-3.8,8.4-8.4S15.8.4,11.1.4h0Z"/>
        <path d="M17.3,14.5l6.2,7.8c.4.5.1,1-.3,1.4-.5.4-1,.5-1.4,0l-6.2-7.8c-.4-.5.1-.9.6-1.2.2-.2.9-.4,1.2-.2Z"/>
      </g>
    </g>
  </g>
</svg>