<?xml version="1.0" encoding="utf-8"?>
<svg xmlns="http://www.w3.org/2000/svg" width="24" height="24" version="1.1" xmlns:xlink="http://www.w3.org/1999/xlink" viewBox="0 0 24 24">
  <defs>
    <style type="text/css">
:root {
--col-highlight: #e9c3ffbb;
}
.word-highlight {
fill: var(--col-highlight);
stroke: var(--col-highlight);
}
    </style>
  </defs>
<rect x="2.075" y="4.219" class="word-highlight" stroke-linejoin="round" stroke-miterlimit="10" enable-background="new    " width="19.851" height="15.562"/>
<path display="none" d="M16.368,23.465c0,0.301-0.245,0.547-0.548,0.547h-2.184c-0.107,0-0.214-0.031-0.306-0.088L12,23.027
	l-1.332,0.896c-0.092,0.057-0.198,0.088-0.306,0.088H8.179c-0.302,0-0.546-0.246-0.546-0.547s0.244-0.546,0.546-0.546h2.02
	l1.256-0.841V1.922l-1.256-0.841h-2.02c-0.302,0-0.546-0.244-0.546-0.546c0-0.301,0.244-0.546,0.546-0.546h2.184
	c0.108,0,0.213,0.031,0.306,0.087L12,0.972l1.332-0.896c0.092-0.056,0.197-0.086,0.307-0.087h2.184c0.302,0,0.547,0.245,0.547,0.546
	c0,0.302-0.245,0.546-0.547,0.546h-2.021l-1.255,0.841v20.156l1.255,0.841h2.021C16.123,22.919,16.368,23.164,16.368,23.465z"/>
<polygon points="12.938,0.765 17.184,0.765 17.184,0 12.574,0 12,0.701 11.426,0 6.816,0 6.816,0.765 11.064,0.765 11.618,1.44 
	11.618,22.561 11.064,23.236 6.816,23.236 6.816,24 11.426,24 12,23.299 12.574,24 17.184,24 17.184,23.236 12.938,23.236 
	12.382,22.561 12.382,1.44 "/>
</svg>
